<?plantuml 1.2026.2beta3?><svg xmlns="http://www.w3.org/2000/svg" xmlns:xlink="http://www.w3.org/1999/xlink" contentStyleType="text/css" data-diagram-type="DESCRIPTION" height="959px" preserveAspectRatio="none" style="width:703px;height:959px;background:#FFFFFF;" version="1.1" viewBox="0 0 703 959" width="703px" zoomAndPan="magnify"><title>Banking System - Use Case Diagram</title><defs/><g><g class="title" data-source-line="1"><text fill="#000000" font-family="sans-serif" font-size="14" font-weight="bold" lengthAdjust="spacing" textLength="286.2549" x="201.7326" y="22.9951">Banking System - Use Case Diagram</text></g><!--cluster Banking System--><g class="cluster" data-qualified-name="Banking System" data-source-line="19" id="ent0006"><rect fill="none" height="718" rx="2.5" ry="2.5" style="stroke:#181818;stroke-width:1;" width="551.46" x="146.26" y="145.0269"/><text fill="#000000" font-family="sans-serif" font-size="14" font-weight="bold" lengthAdjust="spacing" textLength="127.374" x="358.303" y="160.022">Banking System</text></g><!--entity UC1--><g class="entity" data-qualified-name="Banking System.UC1" data-source-line="22" id="ent0007"><ellipse cx="261.5022" cy="831.0293" fill="#E8F5E9" rx="66.9622" ry="15.7924" style="stroke:#2E7D32;stroke-width:0.5;"/><text fill="#000000" font-family="sans-serif" font-size="14" lengthAdjust="spacing" textLength="98.6152" x="212.1946" y="835.6778">Open Account</text></g><!--entity UC2--><g class="entity" data-qualified-name="Banking System.UC2" data-source-line="23" id="ent0008"><ellipse cx="261.5016" cy="271.0292" fill="#E8F5E9" rx="69.2116" ry="16.2423" style="stroke:#2E7D32;stroke-width:0.5;"/><text fill="#000000" font-family="sans-serif" font-size="14" lengthAdjust="spacing" textLength="104.3848" x="209.3092" y="275.6776">Deposit Money</text></g><!--entity UC3--><g class="entity" data-qualified-name="Banking System.UC3" data-source-line="24" id="ent0009"><ellipse cx="261.4993" cy="340.0267" fill="#E8F5E9" rx="74.5493" ry="17.3099" style="stroke:#2E7D32;stroke-width:0.5;"/><text fill="#000000" font-family="sans-serif" font-size="14" lengthAdjust="spacing" textLength="117.6328" x="202.6828" y="344.6752">Withdraw Money</text></g><!--entity UC4--><g class="entity" data-qualified-name="Banking System.UC4" data-source-line="25" id="ent0010"><ellipse cx="261.4979" cy="684.0305" fill="#E8F5E9" rx="69.3679" ry="16.2736" style="stroke:#2E7D32;stroke-width:0.5;"/><text fill="#000000" font-family="sans-serif" font-size="14" lengthAdjust="spacing" textLength="104.7813" x="209.1073" y="688.6789">Transfer Funds</text></g><!--entity UC5--><g class="entity" data-qualified-name="Banking System.UC5" data-source-line="26" id="ent0011"><ellipse cx="583.734" cy="758.0317" fill="#E8F5E9" rx="90.574" ry="20.5148" style="stroke:#2E7D32;stroke-width:0.5;"/><text fill="#000000" font-family="sans-serif" font-size="14" lengthAdjust="spacing" textLength="155.0391" x="506.2145" y="762.6801">View Account Balance</text></g><!--entity UC6--><g class="entity" data-qualified-name="Banking System.UC6" data-source-line="27" id="ent0012"><ellipse cx="261.5016" cy="758.0252" fill="#E8F5E9" rx="99.2416" ry="22.2483" style="stroke:#2E7D32;stroke-width:0.5;"/><text fill="#000000" font-family="sans-serif" font-size="14" lengthAdjust="spacing" textLength="174.3848" x="174.3092" y="762.6736">View Transaction History</text></g><!--entity UC7--><g class="entity" data-qualified-name="Banking System.UC7" data-source-line="28" id="ent0013"><ellipse cx="261.498" cy="617.0225" fill="#E8F5E9" rx="68.078" ry="16.0156" style="stroke:#2E7D32;stroke-width:0.5;"/><text fill="#000000" font-family="sans-serif" font-size="14" lengthAdjust="spacing" textLength="101.4932" x="210.7514" y="621.6709">Apply for Loan</text></g><!--entity UC8--><g class="entity" data-qualified-name="Banking System.UC8" data-source-line="31" id="ent0014"><ellipse cx="261.499" cy="200.0227" fill="#E8F5E9" rx="87.279" ry="19.8558" style="stroke:#2E7D32;stroke-width:0.5;"/><text fill="#000000" font-family="sans-serif" font-size="14" lengthAdjust="spacing" textLength="147.5537" x="187.7221" y="204.6711">Process Transactions</text></g><!--entity UC9--><g class="entity" data-qualified-name="Banking System.UC9" data-source-line="32" id="ent0015"><ellipse cx="583.7262" cy="256.0241" fill="#E8F5E9" rx="97.9862" ry="21.9972" style="stroke:#2E7D32;stroke-width:0.5;"/><text fill="#000000" font-family="sans-serif" font-size="14" lengthAdjust="spacing" textLength="171.6094" x="497.9215" y="260.6725">Verify Customer Identity</text></g><!--entity UC10--><g class="entity" data-qualified-name="Banking System.UC10" data-source-line="35" id="ent0016"><ellipse cx="261.5015" cy="477.0252" fill="#E8F5E9" rx="77.2415" ry="17.8483" style="stroke:#2E7D32;stroke-width:0.5;"/><text fill="#000000" font-family="sans-serif" font-size="14" lengthAdjust="spacing" textLength="124.127" x="199.438" y="481.6736">Manage Accounts</text></g><!--entity UC11--><g class="entity" data-qualified-name="Banking System.UC11" data-source-line="36" id="ent0017"><ellipse cx="261.4986" cy="548.0286" fill="#E8F5E9" rx="77.2586" ry="17.8517" style="stroke:#2E7D32;stroke-width:0.5;"/><text fill="#000000" font-family="sans-serif" font-size="14" lengthAdjust="spacing" textLength="124.168" x="199.4147" y="552.677">Generate Reports</text></g><!--entity UC12--><g class="entity" data-qualified-name="Banking System.UC12" data-source-line="37" id="ent0018"><ellipse cx="261.5029" cy="408.0295" fill="#E8F5E9" rx="67.2129" ry="15.8426" style="stroke:#2E7D32;stroke-width:0.5;"/><text fill="#000000" font-family="sans-serif" font-size="14" lengthAdjust="spacing" textLength="99.2646" x="211.8706" y="412.6779">Manage Users</text></g><!--entity UC13--><g class="entity" data-qualified-name="Banking System.UC13" data-source-line="40" id="ent0019"><ellipse cx="583.7313" cy="385.0271" fill="#E8F5E9" rx="78.2013" ry="18.0403" style="stroke:#2E7D32;stroke-width:0.5;"/><text fill="#000000" font-family="sans-serif" font-size="14" lengthAdjust="spacing" textLength="126.417" x="520.5228" y="389.6756">Authenticate User</text></g><!--entity UC14--><g class="entity" data-qualified-name="Banking System.UC14" data-source-line="41" id="ent0020"><ellipse cx="583.7315" cy="684.0252" fill="#E8F5E9" rx="75.5415" ry="17.5083" style="stroke:#2E7D32;stroke-width:0.5;"/><text fill="#000000" font-family="sans-serif" font-size="14" lengthAdjust="spacing" textLength="120.0391" x="523.712" y="688.6736">Send Notification</text></g><!--entity customer--><g class="entity" data-qualified-name="customer" data-source-line="13" id="ent0002"><ellipse cx="52.632" cy="661.8869" fill="#F1F1F1" rx="16" ry="16" style="stroke:#181818;stroke-width:0.5;"/><path d="M52.632,681.8869 C56.632,681.8869 59.632,681.8869 63.632,677.8869 C71.632,677.8869 79.632,685.8869 79.632,693.8869 L79.632,697.8869 C79.632,701.8869 75.632,705.8869 71.632,705.8869 L33.632,705.8869 C29.632,705.8869 25.632,701.8869 25.632,697.8869 L25.632,693.8869 C25.632,685.8869 33.632,677.8869 41.632,677.8869 C45.632,681.8869 48.632,681.8869 52.632,681.8869" fill="#F1F1F1" style="stroke:#181818;stroke-width:0.5;"/><text fill="#000000" font-family="sans-serif" font-size="14" lengthAdjust="spacing" textLength="68.0039" x="18.63" y="719.382">Customer</text></g><!--entity teller--><g class="entity" data-qualified-name="teller" data-source-line="14" id="ent0003"><ellipse cx="52.6339" cy="99.8869" fill="#F1F1F1" rx="16" ry="16" style="stroke:#181818;stroke-width:0.5;"/><path d="M52.6339,119.8869 C56.6339,119.8869 59.6339,119.8869 63.6339,115.8869 C71.6339,115.8869 79.6339,123.8869 79.6339,131.8869 L79.6339,135.8869 C79.6339,139.8869 75.6339,143.8869 71.6339,143.8869 L33.6339,143.8869 C29.6339,143.8869 25.6339,139.8869 25.6339,135.8869 L25.6339,131.8869 C25.6339,123.8869 33.6339,115.8869 41.6339,115.8869 C45.6339,119.8869 48.6339,119.8869 52.6339,119.8869" fill="#F1F1F1" style="stroke:#181818;stroke-width:0.5;"/><text fill="#000000" font-family="sans-serif" font-size="14" lengthAdjust="spacing" textLength="78.9277" x="13.17" y="157.382">Bank Teller</text></g><!--entity admin--><g class="entity" data-qualified-name="admin" data-source-line="15" id="ent0004"><ellipse cx="52.63" cy="467.8869" fill="#F1F1F1" rx="16" ry="16" style="stroke:#181818;stroke-width:0.5;"/><path d="M52.63,487.8869 C56.63,487.8869 59.63,487.8869 63.63,483.8869 C71.63,483.8869 79.63,491.8869 79.63,499.8869 L79.63,503.8869 C79.63,507.8869 75.63,511.8869 71.63,511.8869 L33.63,511.8869 C29.63,511.8869 25.63,507.8869 25.63,503.8869 L25.63,499.8869 C25.63,491.8869 33.63,483.8869 41.63,483.8869 C45.63,487.8869 48.63,487.8869 52.63,487.8869" fill="#F1F1F1" style="stroke:#181818;stroke-width:0.5;"/><text fill="#000000" font-family="sans-serif" font-size="14" lengthAdjust="spacing" textLength="44.8643" x="30.1979" y="525.382">Admin</text></g><!--entity atm--><g class="entity" data-qualified-name="atm" data-source-line="16" id="ent0005"><ellipse cx="52.6313" cy="237.8869" fill="#F1F1F1" rx="16" ry="16" style="stroke:#181818;stroke-width:0.5;"/><path d="M52.6313,257.8869 C56.6313,257.8869 59.6313,257.8869 63.6313,253.8869 C71.6313,253.8869 79.6313,261.8869 79.6313,269.8869 L79.6313,273.8869 C79.6313,277.8869 75.6313,281.8869 71.6313,281.8869 L33.6313,281.8869 C29.6313,281.8869 25.6313,277.8869 25.6313,273.8869 L25.6313,269.8869 C25.6313,261.8869 33.6313,253.8869 41.6313,253.8869 C45.6313,257.8869 48.6313,257.8869 52.6313,257.8869" fill="#F1F1F1" style="stroke:#181818;stroke-width:0.5;"/><text fill="#000000" font-family="sans-serif" font-size="14" lengthAdjust="spacing" textLength="93.2627" x="6" y="295.382">ATM Machine</text></g><!--link customer to UC1--><g class="link" data-entity-1="ent0002" data-entity-2="ent0007" data-link-type="dependency" data-source-line="45" id="lnk21"><path d="M73.56,722.9769 C88.24,747.9369 110.45,779.0869 138.26,798.0269 C157.07,810.8369 174.7952,817.3749 196.2152,822.1749" fill="none" id="customer-to-UC1" style="stroke:#1B5E20;stroke-width:1;"/><polygon fill="#1B5E20" points="202.07,823.4869,194.1625,817.6157,197.191,822.3935,192.4131,825.4221,202.07,823.4869" style="stroke:#1B5E20;stroke-width:1;"/></g><!--link customer to UC2--><g class="link" data-entity-1="ent0002" data-entity-2="ent0008" data-link-type="dependency" data-source-line="46" id="lnk22"><path d="M68.4,644.9569 C78.29,617.5869 90.97,579.9769 99.26,546.0269 C125.02,440.6269 65.84,385.8269 138.26,305.0269 C152.67,288.9569 168.1063,281.5239 188.9063,276.8439" fill="none" id="customer-to-UC2" style="stroke:#1B5E20;stroke-width:1;"/><polygon fill="#1B5E20" points="194.76,275.5269,185.1015,273.6,189.882,276.6244,186.8576,281.4049,194.76,275.5269" style="stroke:#1B5E20;stroke-width:1;"/></g><!--link customer to UC3--><g class="link" data-entity-1="ent0002" data-entity-2="ent0009" data-link-type="dependency" data-source-line="47" id="lnk23"><path d="M67.61,645.0769 C77.2,617.5969 89.85,579.8169 99.26,546.0269 C120.19,470.9369 84.67,431.6369 138.26,375.0269 C152.3,360.2069 166.3485,353.009 185.9785,347.969" fill="none" id="customer-to-UC3" style="stroke:#1B5E20;stroke-width:1;"/><polygon fill="#1B5E20" points="191.79,346.4769,182.078,344.8407,186.9471,347.7203,184.0675,352.5894,191.79,346.4769" style="stroke:#1B5E20;stroke-width:1;"/></g><!--link customer to UC4--><g class="link" data-entity-1="ent0002" data-entity-2="ent0010" data-link-type="dependency" data-source-line="48" id="lnk24"><path d="M86.87,684.0269 C115.08,684.0269 150.48,684.0269 185.78,684.0269" fill="none" id="customer-to-UC4" style="stroke:#1B5E20;stroke-width:1;"/><polygon fill="#1B5E20" points="191.78,684.0269,182.78,680.0269,186.78,684.0269,182.78,688.0269,191.78,684.0269" style="stroke:#1B5E20;stroke-width:1;"/></g><!--link customer to UC5--><g class="link" data-entity-1="ent0002" data-entity-2="ent0011" data-link-type="dependency" data-source-line="49" id="lnk25"><path d="M59.55,722.9669 C68.4,765.9369 89.58,833.1269 138.26,864.0269 C276.9,952.0369 476.9983,831.8197 550.4083,781.2697" fill="none" id="customer-to-UC5" style="stroke:#1B5E20;stroke-width:1;"/><polygon fill="#1B5E20" points="555.35,777.8669,545.6689,779.6767,551.2319,780.7026,550.206,786.2656,555.35,777.8669" style="stroke:#1B5E20;stroke-width:1;"/></g><!--link customer to UC6--><g class="link" data-entity-1="ent0002" data-entity-2="ent0012" data-link-type="dependency" data-source-line="50" id="lnk26"><path d="M86.8,697.9469 C102.34,704.3069 121.15,711.8069 138.26,718.0269 C158.93,725.5569 176.0821,731.3576 196.3921,737.9376" fill="none" id="customer-to-UC6" style="stroke:#1B5E20;stroke-width:1;"/><polygon fill="#1B5E20" points="202.1,739.7869,194.771,733.2077,197.3434,738.2458,192.3053,740.8183,202.1,739.7869" style="stroke:#1B5E20;stroke-width:1;"/></g><!--link customer to UC7--><g class="link" data-entity-1="ent0002" data-entity-2="ent0013" data-link-type="dependency" data-source-line="51" id="lnk27"><path d="M87.06,669.5369 C102.49,663.1269 121.14,655.7569 138.26,650.0269 C162.44,641.9369 183.998,635.897 206.698,630.077" fill="none" id="customer-to-UC7" style="stroke:#1B5E20;stroke-width:1;"/><polygon fill="#1B5E20" points="212.51,628.5869,202.7986,626.9474,207.6667,629.8286,204.7854,634.6967,212.51,628.5869" style="stroke:#1B5E20;stroke-width:1;"/></g><!--link teller to UC8--><g class="link" data-entity-1="ent0003" data-entity-2="ent0014" data-link-type="dependency" data-source-line="54" id="lnk28"><path d="M92.54,136.7069 C127.3,149.8069 172.636,166.8996 209.306,180.7296" fill="none" id="teller-to-UC8" style="stroke:#1B5E20;stroke-width:1;"/><polygon fill="#1B5E20" points="214.92,182.8469,207.9105,175.9282,210.2417,181.0825,205.0875,183.4136,214.92,182.8469" style="stroke:#1B5E20;stroke-width:1;"/></g><!--link teller to UC9--><g class="link" data-entity-1="ent0003" data-entity-2="ent0015" data-link-type="dependency" data-source-line="55" id="lnk29"><path d="M92.55,108.3469 C167.18,84.5469 333.8,43.2969 455.75,101.0269 C514.23,128.7169 552.0899,192.6237 569.8899,228.4437" fill="none" id="teller-to-UC9" style="stroke:#1B5E20;stroke-width:1;"/><polygon fill="#1B5E20" points="572.56,233.8169,572.137,223.9771,570.3349,229.3393,564.9728,227.5372,572.56,233.8169" style="stroke:#1B5E20;stroke-width:1;"/></g><!--link teller to UC2--><g class="link" data-entity-1="ent0003" data-entity-2="ent0008" data-link-type="dependency" data-source-line="56" id="lnk30"><path d="M92.28,153.1169 C106.21,166.2169 120.8,182.4869 130.26,200.0269 C138.25,214.8369 126.72,224.7969 138.26,237.0269 C153.08,252.7369 168.6087,260.0693 189.3687,264.7793" fill="none" id="teller-to-UC2" style="stroke:#1B5E20;stroke-width:1;"/><polygon fill="#1B5E20" points="195.22,266.1069,187.3281,260.2147,190.3439,265.0006,185.558,268.0164,195.22,266.1069" style="stroke:#1B5E20;stroke-width:1;"/></g><!--link teller to UC3--><g class="link" data-entity-1="ent0003" data-entity-2="ent0009" data-link-type="dependency" data-source-line="57" id="lnk31"><path d="M76.27,160.8069 C83.88,174.3269 92.21,189.7069 99.26,204.0269 C114.64,235.2969 118.71,243.1569 130.26,276.0269 C134.69,288.6469 128.85,295.5269 138.26,305.0269 C152.71,319.6169 166.9776,326.7384 186.6976,331.7884" fill="none" id="teller-to-UC3" style="stroke:#1B5E20;stroke-width:1;"/><polygon fill="#1B5E20" points="192.51,333.2769,184.7837,327.1692,187.6663,332.0365,182.799,334.9191,192.51,333.2769" style="stroke:#1B5E20;stroke-width:1;"/></g><!--link admin to UC10--><g class="link" data-entity-1="ent0004" data-entity-2="ent0016" data-link-type="dependency" data-source-line="60" id="lnk32"><path d="M80.25,488.3569 C106.99,486.6769 143.4219,484.3942 180.4019,482.0642" fill="none" id="admin-to-UC10" style="stroke:#1B5E20;stroke-width:1;"/><polygon fill="#1B5E20" points="186.39,481.6869,177.1563,478.2607,181.3999,482.0013,177.6593,486.2449,186.39,481.6869" style="stroke:#1B5E20;stroke-width:1;"/></g><!--link admin to UC11--><g class="link" data-entity-1="ent0004" data-entity-2="ent0017" data-link-type="dependency" data-source-line="61" id="lnk33"><path d="M80.25,497.4969 C113.21,506.7369 164.2229,521.0366 205.2629,532.5466" fill="none" id="admin-to-UC11" style="stroke:#1B5E20;stroke-width:1;"/><polygon fill="#1B5E20" points="211.04,534.1669,203.4545,527.8851,206.2258,532.8167,201.2942,535.5879,211.04,534.1669" style="stroke:#1B5E20;stroke-width:1;"/></g><!--link admin to UC12--><g class="link" data-entity-1="ent0004" data-entity-2="ent0018" data-link-type="dependency" data-source-line="62" id="lnk34"><path d="M80.59,472.4869 C96.81,462.5069 118.14,450.3869 138.26,442.0269 C161.56,432.3569 182.6511,426 205.2811,420.31" fill="none" id="admin-to-UC12" style="stroke:#1B5E20;stroke-width:1;"/><polygon fill="#1B5E20" points="211.1,418.8469,201.3963,417.1622,206.2509,420.0661,203.3471,424.9207,211.1,418.8469" style="stroke:#1B5E20;stroke-width:1;"/></g><!--link atm to UC2--><g class="link" data-entity-1="ent0005" data-entity-2="ent0008" data-link-type="dependency" data-source-line="65" id="lnk35"><path d="M99.54,262.4769 C127.16,263.9369 156.8084,265.519 187.5284,267.149" fill="none" id="atm-to-UC2" style="stroke:#1B5E20;stroke-width:1;"/><polygon fill="#1B5E20" points="193.52,267.4669,184.7446,262.9956,188.527,267.2019,184.3207,270.9844,193.52,267.4669" style="stroke:#1B5E20;stroke-width:1;"/></g><!--link atm to UC3--><g class="link" data-entity-1="ent0005" data-entity-2="ent0009" data-link-type="dependency" data-source-line="66" id="lnk36"><path d="M99.35,286.5869 C111.73,293.1569 125.3,299.7969 138.26,305.0269 C160.57,314.0369 180.2534,320.1778 202.1434,326.0278" fill="none" id="atm-to-UC3" style="stroke:#1B5E20;stroke-width:1;"/><polygon fill="#1B5E20" points="207.94,327.5769,200.2779,321.3888,203.1095,326.286,198.2124,329.1176,207.94,327.5769" style="stroke:#1B5E20;stroke-width:1;"/></g><!--link atm to UC5--><g class="link" data-entity-1="ent0005" data-entity-2="ent0011" data-link-type="dependency" data-source-line="67" id="lnk37"><path d="M76.07,220.9069 C90.73,199.4969 112.02,174.9669 138.26,163.0269 C228.28,122.1069 270.27,123.1369 360.75,163.0269 C418.03,188.2869 431.18,209.4469 455.75,267.0269 C495.25,359.6269 426.65,637.5369 485.75,719.0269 C493.74,730.0469 499.9113,735.4665 512.3613,741.1465" fill="none" id="atm-to-UC5" style="stroke:#1B5E20;stroke-width:1;"/><polygon fill="#1B5E20" points="517.82,743.6369,511.2922,736.2621,513.271,741.5615,507.9716,743.5404,517.82,743.6369" style="stroke:#1B5E20;stroke-width:1;"/></g><!--link UC2 to UC13--><g class="link" data-entity-1="ent0008" data-entity-2="ent0019" data-link-type="dependency" data-source-line="70" id="lnk38"><path d="M324.47,278.1669 C363.13,283.9069 413.41,293.7869 455.75,310.0269 C493.99,324.7069 529.1148,346.9102 553.7648,364.0602" fill="none" id="UC2-to-UC13" style="stroke:#1B5E20;stroke-width:1;stroke-dasharray:7,7;"/><polygon fill="#1B5E20" points="558.69,367.4869,553.5866,359.0634,554.5856,364.6313,549.0177,365.6303,558.69,367.4869" style="stroke:#1B5E20;stroke-width:1;"/><text fill="#000000" font-family="sans-serif" font-size="13" lengthAdjust="spacing" textLength="63.0068" x="391.75" y="288.0938">&#171;include&#187;</text></g><!--link UC3 to UC13--><g class="link" data-entity-1="ent0009" data-entity-2="ent0019" data-link-type="dependency" data-source-line="71" id="lnk39"><path d="M304.8,354.4069 C322.23,360.5069 342.55,367.8569 360.75,375.0269 C374.26,380.3569 376.52,385.0769 390.75,388.0269 C430.89,396.3569 470.7952,396.414 507.6452,393.784" fill="none" id="UC3-to-UC13" style="stroke:#1B5E20;stroke-width:1;stroke-dasharray:7,7;"/><polygon fill="#1B5E20" points="513.63,393.3569,504.3681,390.0077,508.6427,393.7128,504.9376,397.9874,513.63,393.3569" style="stroke:#1B5E20;stroke-width:1;"/><text fill="#000000" font-family="sans-serif" font-size="13" lengthAdjust="spacing" textLength="63.0068" x="391.75" y="384.0938">&#171;include&#187;</text></g><!--link UC4 to UC13--><g class="link" data-entity-1="ent0010" data-entity-2="ent0019" data-link-type="dependency" data-source-line="72" id="lnk40"><path d="M313.2,672.8169 C329.29,667.7869 346.56,660.7269 360.75,651.0269 C463.28,580.9269 541.8265,456.0352 569.5265,408.3452" fill="none" id="UC4-to-UC13" style="stroke:#1B5E20;stroke-width:1;stroke-dasharray:7,7;"/><polygon fill="#1B5E20" points="572.54,403.1569,564.5608,408.9303,570.0287,407.4805,571.4785,412.9484,572.54,403.1569" style="stroke:#1B5E20;stroke-width:1;"/><text fill="#000000" font-family="sans-serif" font-size="13" lengthAdjust="spacing" textLength="63.0068" x="391.75" y="566.0938">&#171;include&#187;</text></g><!--link UC4 to UC14--><g class="link" data-entity-1="ent0010" data-entity-2="ent0020" data-link-type="dependency" data-source-line="73" id="lnk41"><path d="M331.2,684.0269 C383.12,684.0269 448.32,684.0269 501.72,684.0269" fill="none" id="UC4-to-UC14" style="stroke:#1B5E20;stroke-width:1;stroke-dasharray:7,7;"/><polygon fill="#1B5E20" points="507.72,684.0269,498.72,680.0269,502.72,684.0269,498.72,688.0269,507.72,684.0269" style="stroke:#1B5E20;stroke-width:1;"/><text fill="#000000" font-family="sans-serif" font-size="13" lengthAdjust="spacing" textLength="63.0068" x="391.75" y="680.0938">&#171;include&#187;</text></g><!--link UC7 to UC9--><g class="link" data-entity-1="ent0013" data-entity-2="ent0015" data-link-type="dependency" data-source-line="74" id="lnk42"><path d="M319.85,608.5169 C335.23,603.5069 350.43,595.5769 360.75,583.0269 C422.28,508.1469 333.99,445.5969 390.75,367.0269 C409.6,340.9269 427.6,350.6669 455.75,335.0269 C488.89,316.6269 520.4966,296.7826 545.8666,280.3226" fill="none" id="UC7-to-UC9" style="stroke:#1B5E20;stroke-width:1;stroke-dasharray:7,7;"/><polygon fill="#1B5E20" points="550.9,277.0569,541.1727,278.5998,546.7055,279.7783,545.527,285.311,550.9,277.0569" style="stroke:#1B5E20;stroke-width:1;"/><text fill="#000000" font-family="sans-serif" font-size="13" lengthAdjust="spacing" textLength="63.0068" x="391.75" y="331.0938">&#171;include&#187;</text></g><!--link UC6 to UC5--><g class="link" data-entity-1="ent0012" data-entity-2="ent0011" data-link-type="dependency" data-source-line="77" id="lnk43"><path d="M361.2,758.0269 C403.19,758.0269 445.82,758.0269 486.81,758.0269" fill="none" id="UC6-to-UC5" style="stroke:#1B5E20;stroke-width:1;stroke-dasharray:7,7;"/><polygon fill="#1B5E20" points="492.81,758.0269,483.81,754.0269,487.81,758.0269,483.81,762.0269,492.81,758.0269" style="stroke:#1B5E20;stroke-width:1;"/><text fill="#000000" font-family="sans-serif" font-size="13" lengthAdjust="spacing" textLength="61.1851" x="392.75" y="754.0938">&#171;extend&#187;</text></g><?plantuml-src ZLJVRzem47xFNt5Y3tsYWmHAgJga0EcALA0YOLiVhSI0rM17jX55q_xtEOvDVgoWvI7otVVvxlETpvB85CCOqNT2jn2UXCHxQCDQO9WWzPiIjELexpWftaYG33ZPxYGaXEDO4aOTeJPcI54WG_4xsk9GdbJ474Pqc-8A0SMIyG96HopOlWeU18xpXByTKDzOnTfoTg39XAMCmvVW_gaV30kCyGHputU3mTHpjT_dd1sDkplk1sx7-UCuD_0j_y2VHCjLM1YELWAjoK58fOAt00c8ZM71l2OGuJGrkDHBY_h9db3jH_dgx8xcC4VnZb1SW79VIWZVmYYOmtYvNapzrPlHSgvKaR9iGqlLGX_i1jhjDbYnvzw8tAq9jdQjPOOf-76i2YTr_lMaMsTCSSO4aJ1d59yCnQrJVXAvIpWwrZXUdHDnHCL6YNbIBHA6qwjpVX1yj69KGrD4OsoO_K-OEYJIbmgUYJehjxdlwcm_oz8JR5IvNnYYXZEebgheshL2lN8MOo6gIUqfxXlQC2URKrdzMOAf9D9g6rRpwajnBUqSKJKXjYWsOxTJPtt757CaCQnKitX9wtuQJANZPufRbHFk4CS9VBLZVKMOVv2x_5nndZQFQ0Cs-XvYci22IRB9gQfgbjUhpjegUF6ZsN8HFizUmuUoTiM5juEcL8pq1MqutAR3QpfwJKU_wRXhEWONrLNct0Wi9jrilA-RmxhfratlOfRYQfZNHw_DwJjririttSi1rKjZmidzMKsvzYhhVXbbjfYyhAU1UfzJtJ-n8vamWLG0kBtLUJruWCT7GkFqaE3HI47UPQZt7r3l7sXWe643EKiDVaN1Odf1wPtPtTUxyOTK5tCq-Wi0?></g></svg>