<?plantuml 1.2026.2beta3?><svg xmlns="http://www.w3.org/2000/svg" xmlns:xlink="http://www.w3.org/1999/xlink" contentStyleType="text/css" data-diagram-type="SEQUENCE" height="1444px" preserveAspectRatio="none" style="width:1239px;height:1444px;background:#FFFFFF;" version="1.1" viewBox="0 0 1239 1444" width="1239px" zoomAndPan="magnify"><title>Banking System - Fund Transfer Process</title><defs/><g><text fill="#000000" font-family="sans-serif" font-size="14" font-weight="bold" lengthAdjust="spacing" textLength="320.1338" x="455.8992" y="27.9951">Banking System - Fund Transfer Process</text><rect fill="none" height="687.9922" style="stroke:#000000;stroke-width:1.5;" width="1212.9321" x="10" y="658.8516"/><g class="participant-lifeline" data-entity-uid="part1" data-qualified-name="customer" id="part1-lifeline"><g><title>Customer</title><rect fill="#000000" fill-opacity="0.00000" height="1245.25" width="8" x="53.002" y="118.5938"/><line style="stroke:#0D47A1;stroke-width:0.5;stroke-dasharray:5,5;" x1="57" x2="57" y1="118.5938" y2="1363.8438"/></g></g><g class="participant-lifeline" data-entity-uid="part2" data-qualified-name="app" id="part2-lifeline"><g><title>Web.Mobile App</title><rect fill="#000000" fill-opacity="0.00000" height="1245.25" width="8" x="283.415" y="118.5938"/><line style="stroke:#0D47A1;stroke-width:0.5;stroke-dasharray:5,5;" x1="286.5229" x2="286.5229" y1="118.5938" y2="1363.8438"/></g></g><g class="participant-lifeline" data-entity-uid="part3" data-qualified-name="auth" id="part3-lifeline"><g><title>Auth Service</title><rect fill="#000000" fill-opacity="0.00000" height="1245.25" width="8" x="460.3682" y="118.5938"/><line style="stroke:#0D47A1;stroke-width:0.5;stroke-dasharray:5,5;" x1="463.8662" x2="463.8662" y1="118.5938" y2="1363.8438"/></g></g><g class="participant-lifeline" data-entity-uid="part4" data-qualified-name="transfer" id="part4-lifeline"><g><title>Transfer Service</title><rect fill="#000000" fill-opacity="0.00000" height="1245.25" width="8" x="586.1416" y="118.5938"/><line style="stroke:#0D47A1;stroke-width:0.5;stroke-dasharray:5,5;" x1="589.8701" x2="589.8701" y1="118.5938" y2="1363.8438"/></g></g><g class="participant-lifeline" data-entity-uid="part5" data-qualified-name="account" id="part5-lifeline"><g><title>Account Service</title><rect fill="#000000" fill-opacity="0.00000" height="1245.25" width="8" x="818.8525" y="118.5938"/><line style="stroke:#0D47A1;stroke-width:0.5;stroke-dasharray:5,5;" x1="822.3706" x2="822.3706" y1="118.5938" y2="1363.8438"/></g></g><g class="participant-lifeline" data-entity-uid="part6" data-qualified-name="db" id="part6-lifeline"><g><title>Database</title><rect fill="#000000" fill-opacity="0.00000" height="1245.25" width="8" x="1012.0112" y="118.5938"/><line style="stroke:#0D47A1;stroke-width:0.5;stroke-dasharray:5,5;" x1="1015.6108" x2="1015.6108" y1="118.5938" y2="1363.8438"/></g></g><g class="participant-lifeline" data-entity-uid="part7" data-qualified-name="notif" id="part7-lifeline"><g><title>Notification Service</title><rect fill="#000000" fill-opacity="0.00000" height="1245.25" width="8" x="1133.6719" y="118.5938"/><line style="stroke:#0D47A1;stroke-width:0.5;stroke-dasharray:5,5;" x1="1137.4116" x2="1137.4116" y1="118.5938" y2="1363.8438"/></g></g><g class="participant participant-head" data-entity-uid="part1" data-qualified-name="customer" id="part1-head"><text fill="#000000" font-family="sans-serif" font-size="14" lengthAdjust="spacing" textLength="68.0039" x="20" y="115.292">Customer</text><ellipse cx="57.002" cy="50.7969" fill="#E2E2F0" rx="8" ry="8" style="stroke:#2E7D32;stroke-width:0.5;"/><path d="M57.002,58.7969 L57.002,85.7969 M44.002,66.7969 L70.002,66.7969 M57.002,85.7969 L44.002,100.7969 M57.002,85.7969 L70.002,100.7969" fill="none" style="stroke:#2E7D32;stroke-width:0.5;"/></g><g class="participant participant-tail" data-entity-uid="part1" data-qualified-name="customer" id="part1-tail"><text fill="#000000" font-family="sans-serif" font-size="14" lengthAdjust="spacing" textLength="68.0039" x="20" y="1375.8389">Customer</text><ellipse cx="57.002" cy="1387.6406" fill="#E2E2F0" rx="8" ry="8" style="stroke:#2E7D32;stroke-width:0.5;"/><path d="M57.002,1395.6406 L57.002,1422.6406 M44.002,1403.6406 L70.002,1403.6406 M57.002,1422.6406 L44.002,1437.6406 M57.002,1422.6406 L70.002,1437.6406" fill="none" style="stroke:#2E7D32;stroke-width:0.5;"/></g><g class="participant participant-head" data-entity-uid="part2" data-qualified-name="app" id="part2-head"><rect fill="#E3F2FD" height="30.2969" rx="2.5" ry="2.5" style="stroke:#1565C0;stroke-width:0.5;" width="127.7842" x="223.5229" y="87.2969"/><text fill="#000000" font-family="sans-serif" font-size="14" lengthAdjust="spacing" textLength="113.7842" x="230.5229" y="107.292">Web/Mobile App</text></g><g class="participant participant-tail" data-entity-uid="part2" data-qualified-name="app" id="part2-tail"><rect fill="#E3F2FD" height="30.2969" rx="2.5" ry="2.5" style="stroke:#1565C0;stroke-width:0.5;" width="127.7842" x="223.5229" y="1362.8438"/><text fill="#000000" font-family="sans-serif" font-size="14" lengthAdjust="spacing" textLength="113.7842" x="230.5229" y="1382.8389">Web/Mobile App</text></g><g class="participant participant-head" data-entity-uid="part3" data-qualified-name="auth" id="part3-head"><rect fill="#E3F2FD" height="30.2969" rx="2.5" ry="2.5" style="stroke:#1565C0;stroke-width:0.5;" width="103.0039" x="412.8662" y="87.2969"/><text fill="#000000" font-family="sans-serif" font-size="14" lengthAdjust="spacing" textLength="89.0039" x="419.8662" y="107.292">Auth Service</text></g><g class="participant participant-tail" data-entity-uid="part3" data-qualified-name="auth" id="part3-tail"><rect fill="#E3F2FD" height="30.2969" rx="2.5" ry="2.5" style="stroke:#1565C0;stroke-width:0.5;" width="103.0039" x="412.8662" y="1362.8438"/><text fill="#000000" font-family="sans-serif" font-size="14" lengthAdjust="spacing" textLength="89.0039" x="419.8662" y="1382.8389">Auth Service</text></g><g class="participant participant-head" data-entity-uid="part4" data-qualified-name="transfer" id="part4-head"><rect fill="#E3F2FD" height="30.2969" rx="2.5" ry="2.5" style="stroke:#1565C0;stroke-width:0.5;" width="128.543" x="525.8701" y="87.2969"/><text fill="#000000" font-family="sans-serif" font-size="14" lengthAdjust="spacing" textLength="114.543" x="532.8701" y="107.292">Transfer Service</text></g><g class="participant participant-tail" data-entity-uid="part4" data-qualified-name="transfer" id="part4-tail"><rect fill="#E3F2FD" height="30.2969" rx="2.5" ry="2.5" style="stroke:#1565C0;stroke-width:0.5;" width="128.543" x="525.8701" y="1362.8438"/><text fill="#000000" font-family="sans-serif" font-size="14" lengthAdjust="spacing" textLength="114.543" x="532.8701" y="1382.8389">Transfer Service</text></g><g class="participant participant-head" data-entity-uid="part5" data-qualified-name="account" id="part5-head"><rect fill="#E3F2FD" height="30.2969" rx="2.5" ry="2.5" style="stroke:#1565C0;stroke-width:0.5;" width="126.9639" x="759.3706" y="87.2969"/><text fill="#000000" font-family="sans-serif" font-size="14" lengthAdjust="spacing" textLength="112.9639" x="766.3706" y="107.292">Account Service</text></g><g class="participant participant-tail" data-entity-uid="part5" data-qualified-name="account" id="part5-tail"><rect fill="#E3F2FD" height="30.2969" rx="2.5" ry="2.5" style="stroke:#1565C0;stroke-width:0.5;" width="126.9639" x="759.3706" y="1362.8438"/><text fill="#000000" font-family="sans-serif" font-size="14" lengthAdjust="spacing" textLength="112.9639" x="766.3706" y="1382.8389">Account Service</text></g><g class="participant participant-head" data-entity-uid="part6" data-qualified-name="db" id="part6-head"><text fill="#000000" font-family="sans-serif" font-size="14" lengthAdjust="spacing" textLength="66.8008" x="979.6108" y="115.292">Database</text><path d="M998.0112,66.2969 C998.0112,56.2969 1016.0112,56.2969 1016.0112,56.2969 C1016.0112,56.2969 1034.0112,56.2969 1034.0112,66.2969 L1034.0112,92.2969 C1034.0112,102.2969 1016.0112,102.2969 1016.0112,102.2969 C1016.0112,102.2969 998.0112,102.2969 998.0112,92.2969 L998.0112,66.2969" fill="#E2E2F0" style="stroke:#181818;stroke-width:0.5;"/><path d="M998.0112,66.2969 C998.0112,76.2969 1016.0112,76.2969 1016.0112,76.2969 C1016.0112,76.2969 1034.0112,76.2969 1034.0112,66.2969" fill="none" style="stroke:#181818;stroke-width:0.5;"/></g><g class="participant participant-tail" data-entity-uid="part6" data-qualified-name="db" id="part6-tail"><text fill="#000000" font-family="sans-serif" font-size="14" lengthAdjust="spacing" textLength="66.8008" x="979.6108" y="1375.8389">Database</text><path d="M998.0112,1389.1406 C998.0112,1379.1406 1016.0112,1379.1406 1016.0112,1379.1406 C1016.0112,1379.1406 1034.0112,1379.1406 1034.0112,1389.1406 L1034.0112,1415.1406 C1034.0112,1425.1406 1016.0112,1425.1406 1016.0112,1425.1406 C1016.0112,1425.1406 998.0112,1425.1406 998.0112,1415.1406 L998.0112,1389.1406" fill="#E2E2F0" style="stroke:#181818;stroke-width:0.5;"/><path d="M998.0112,1389.1406 C998.0112,1399.1406 1016.0112,1399.1406 1016.0112,1399.1406 C1016.0112,1399.1406 1034.0112,1399.1406 1034.0112,1389.1406" fill="none" style="stroke:#181818;stroke-width:0.5;"/></g><g class="participant participant-head" data-entity-uid="part7" data-qualified-name="notif" id="part7-head"><rect fill="#E3F2FD" height="30.2969" rx="2.5" ry="2.5" style="stroke:#1565C0;stroke-width:0.5;" width="150.5205" x="1062.4116" y="87.2969"/><text fill="#000000" font-family="sans-serif" font-size="14" lengthAdjust="spacing" textLength="136.5205" x="1069.4116" y="107.292">Notification Service</text></g><g class="participant participant-tail" data-entity-uid="part7" data-qualified-name="notif" id="part7-tail"><rect fill="#E3F2FD" height="30.2969" rx="2.5" ry="2.5" style="stroke:#1565C0;stroke-width:0.5;" width="150.5205" x="1062.4116" y="1362.8438"/><text fill="#000000" font-family="sans-serif" font-size="14" lengthAdjust="spacing" textLength="136.5205" x="1069.4116" y="1382.8389">Notification Service</text></g><rect fill="#EEEEEE" height="3" style="stroke:#EEEEEE;stroke-width:1;" width="1232.9321" x="0" y="149.1602"/><line style="stroke:#000000;stroke-width:1;" x1="0" x2="1232.9321" y1="149.1602" y2="149.1602"/><line style="stroke:#000000;stroke-width:1;" x1="0" x2="1232.9321" y1="152.1602" y2="152.1602"/><rect fill="#EEEEEE" height="23.1328" style="stroke:#000000;stroke-width:2;" width="176.0239" x="528.4541" y="138.5938"/><text fill="#000000" font-family="sans-serif" font-size="13" font-weight="bold" lengthAdjust="spacing" textLength="157.498" x="534.4541" y="154.6606">Authentication Phase</text><g class="message" data-entity-1="part1" data-entity-2="part2" id="msg1"><polygon fill="#1565C0" points="275.415,188.8594,285.415,192.8594,275.415,196.8594,279.415,192.8594" style="stroke:#1565C0;stroke-width:1;"/><line style="stroke:#1565C0;stroke-width:1;" x1="57.002" x2="281.415" y1="192.8594" y2="192.8594"/><text fill="#000000" font-family="sans-serif" font-size="13" lengthAdjust="spacing" textLength="129.2256" x="64.002" y="187.7935">Open Transfer Page</text></g><g class="message" data-entity-1="part2" data-entity-2="part3" id="msg2"><polygon fill="#1565C0" points="452.3682,217.9922,462.3682,221.9922,452.3682,225.9922,456.3682,221.9922" style="stroke:#1565C0;stroke-width:1;"/><line style="stroke:#1565C0;stroke-width:1;" x1="287.415" x2="458.3682" y1="221.9922" y2="221.9922"/><text fill="#000000" font-family="sans-serif" font-size="13" lengthAdjust="spacing" textLength="152.9531" x="294.415" y="216.9263">Request Authentication</text></g><g class="message" data-entity-1="part3" data-entity-2="part1" id="msg3"><polygon fill="#1565C0" points="68.002,247.125,58.002,251.125,68.002,255.125,64.002,251.125" style="stroke:#1565C0;stroke-width:1;"/><line style="stroke:#1565C0;stroke-width:1;" x1="62.002" x2="463.3682" y1="251.125" y2="251.125"/><text fill="#000000" font-family="sans-serif" font-size="13" lengthAdjust="spacing" textLength="147.2593" x="74.002" y="246.0591">Prompt for Credentials</text></g><g class="message" data-entity-1="part1" data-entity-2="part3" id="msg4"><polygon fill="#1565C0" points="452.3682,276.2578,462.3682,280.2578,452.3682,284.2578,456.3682,280.2578" style="stroke:#1565C0;stroke-width:1;"/><line style="stroke:#1565C0;stroke-width:1;" x1="57.002" x2="458.3682" y1="280.2578" y2="280.2578"/><text fill="#000000" font-family="sans-serif" font-size="13" lengthAdjust="spacing" textLength="185.4595" x="64.002" y="275.1919">Enter Username &amp; Password</text></g><g class="message" data-entity-1="part3" data-entity-2="part6" id="msg5"><polygon fill="#1565C0" points="1004.0112,305.3906,1014.0112,309.3906,1004.0112,313.3906,1008.0112,309.3906" style="stroke:#1565C0;stroke-width:1;"/><line style="stroke:#1565C0;stroke-width:1;" x1="464.3682" x2="1010.0112" y1="309.3906" y2="309.3906"/><text fill="#000000" font-family="sans-serif" font-size="13" lengthAdjust="spacing" textLength="131.498" x="471.3682" y="304.3247">Validate Credentials</text></g><g class="message" data-entity-1="part6" data-entity-2="part3" id="msg6"><polygon fill="#1565C0" points="475.3682,334.5234,465.3682,338.5234,475.3682,342.5234,471.3682,338.5234" style="stroke:#1565C0;stroke-width:1;"/><line style="stroke:#1565C0;stroke-width:1;stroke-dasharray:2,2;" x1="469.3682" x2="1015.0112" y1="338.5234" y2="338.5234"/><text fill="#000000" font-family="sans-serif" font-size="13" lengthAdjust="spacing" textLength="110.4365" x="481.3682" y="333.4575">Credentials Valid</text></g><g class="message" data-entity-1="part3" data-entity-2="part2" id="msg7"><polygon fill="#1565C0" points="298.415,363.6563,288.415,367.6563,298.415,371.6563,294.415,367.6563" style="stroke:#1565C0;stroke-width:1;"/><line style="stroke:#1565C0;stroke-width:1;stroke-dasharray:2,2;" x1="292.415" x2="463.3682" y1="367.6563" y2="367.6563"/><text fill="#000000" font-family="sans-serif" font-size="13" lengthAdjust="spacing" textLength="139.2231" x="304.415" y="362.5903">Authentication Token</text></g><rect fill="#EEEEEE" height="3" style="stroke:#EEEEEE;stroke-width:1;" width="1232.9321" x="0" y="396.2227"/><line style="stroke:#000000;stroke-width:1;" x1="0" x2="1232.9321" y1="396.2227" y2="396.2227"/><line style="stroke:#000000;stroke-width:1;" x1="0" x2="1232.9321" y1="399.2227" y2="399.2227"/><rect fill="#EEEEEE" height="23.1328" style="stroke:#000000;stroke-width:2;" width="200.4624" x="516.2349" y="385.6563"/><text fill="#000000" font-family="sans-serif" font-size="13" font-weight="bold" lengthAdjust="spacing" textLength="181.9365" x="522.2349" y="401.7231">Transfer Initiation Phase</text><g class="message" data-entity-1="part1" data-entity-2="part2" id="msg8"><polygon fill="#1565C0" points="275.415,451.0547,285.415,455.0547,275.415,459.0547,279.415,455.0547" style="stroke:#1565C0;stroke-width:1;"/><line style="stroke:#1565C0;stroke-width:1;" x1="57.002" x2="281.415" y1="455.0547" y2="455.0547"/><text fill="#000000" font-family="sans-serif" font-size="13" lengthAdjust="spacing" textLength="142.4097" x="64.002" y="434.856">Enter Transfer Details</text><text fill="#000000" font-family="sans-serif" font-size="13" lengthAdjust="spacing" textLength="206.4131" x="64.002" y="449.9888">(recipient, amount, description)</text></g><g class="message" data-entity-1="part2" data-entity-2="part4" id="msg9"><polygon fill="#1565C0" points="578.1416,480.1875,588.1416,484.1875,578.1416,488.1875,582.1416,484.1875" style="stroke:#1565C0;stroke-width:1;"/><line style="stroke:#1565C0;stroke-width:1;" x1="287.415" x2="584.1416" y1="484.1875" y2="484.1875"/><text fill="#000000" font-family="sans-serif" font-size="13" lengthAdjust="spacing" textLength="161.2939" x="294.415" y="479.1216">Initiate Transfer Request</text></g><rect fill="#EEEEEE" height="3" style="stroke:#EEEEEE;stroke-width:1;" width="1232.9321" x="0" y="512.7539"/><line style="stroke:#000000;stroke-width:1;" x1="0" x2="1232.9321" y1="512.7539" y2="512.7539"/><line style="stroke:#000000;stroke-width:1;" x1="0" x2="1232.9321" y1="515.7539" y2="515.7539"/><rect fill="#EEEEEE" height="23.1328" style="stroke:#000000;stroke-width:2;" width="141.8418" x="545.5452" y="502.1875"/><text fill="#000000" font-family="sans-serif" font-size="13" font-weight="bold" lengthAdjust="spacing" textLength="123.3159" x="551.5452" y="518.2544">Validation Phase</text><g class="message" data-entity-1="part4" data-entity-2="part5" id="msg10"><polygon fill="#1565C0" points="810.8525,552.4531,820.8525,556.4531,810.8525,560.4531,814.8525,556.4531" style="stroke:#1565C0;stroke-width:1;"/><line style="stroke:#1565C0;stroke-width:1;" x1="590.1416" x2="816.8525" y1="556.4531" y2="556.4531"/><text fill="#000000" font-family="sans-serif" font-size="13" lengthAdjust="spacing" textLength="203.0361" x="597.1416" y="551.3872">Check Sender Account Balance</text></g><g class="message" data-entity-1="part5" data-entity-2="part6" id="msg11"><polygon fill="#1565C0" points="1004.0112,581.5859,1014.0112,585.5859,1004.0112,589.5859,1008.0112,585.5859" style="stroke:#1565C0;stroke-width:1;"/><line style="stroke:#1565C0;stroke-width:1;" x1="822.8525" x2="1010.0112" y1="585.5859" y2="585.5859"/><text fill="#000000" font-family="sans-serif" font-size="13" lengthAdjust="spacing" textLength="152.3374" x="829.8525" y="580.52">Query Account Balance</text></g><g class="message" data-entity-1="part6" data-entity-2="part5" id="msg12"><polygon fill="#1565C0" points="833.8525,610.7188,823.8525,614.7188,833.8525,618.7188,829.8525,614.7188" style="stroke:#1565C0;stroke-width:1;"/><line style="stroke:#1565C0;stroke-width:1;stroke-dasharray:2,2;" x1="827.8525" x2="1015.0112" y1="614.7188" y2="614.7188"/><text fill="#000000" font-family="sans-serif" font-size="13" lengthAdjust="spacing" textLength="99.9312" x="839.8525" y="609.6528">Return Balance</text></g><g class="message" data-entity-1="part5" data-entity-2="part4" id="msg13"><polygon fill="#1565C0" points="601.1416,639.8516,591.1416,643.8516,601.1416,647.8516,597.1416,643.8516" style="stroke:#1565C0;stroke-width:1;"/><line style="stroke:#1565C0;stroke-width:1;stroke-dasharray:2,2;" x1="595.1416" x2="821.8525" y1="643.8516" y2="643.8516"/><text fill="#000000" font-family="sans-serif" font-size="13" lengthAdjust="spacing" textLength="105.8472" x="607.1416" y="638.7856">Balance: $5,000</text></g><path d="M10,658.8516 L74.4429,658.8516 L74.4429,665.9844 L64.4429,675.9844 L10,675.9844 L10,658.8516" fill="#EEEEEE" style="stroke:#000000;stroke-width:1.5;"/><rect fill="none" height="687.9922" style="stroke:#000000;stroke-width:1.5;" width="1212.9321" x="10" y="658.8516"/><text fill="#000000" font-family="sans-serif" font-size="13" font-weight="bold" lengthAdjust="spacing" textLength="19.4429" x="25" y="671.9185">alt</text><text fill="#000000" font-family="sans-serif" font-size="11" font-weight="bold" lengthAdjust="spacing" textLength="111.418" x="89.4429" y="671.062">[Sufficient Funds]</text><g class="message" data-entity-1="part4" data-entity-2="part5" id="msg14"><polygon fill="#1565C0" points="810.8525,693.1172,820.8525,697.1172,810.8525,701.1172,814.8525,697.1172" style="stroke:#1565C0;stroke-width:1;"/><line style="stroke:#1565C0;stroke-width:1;" x1="590.1416" x2="816.8525" y1="697.1172" y2="697.1172"/><text fill="#000000" font-family="sans-serif" font-size="13" lengthAdjust="spacing" textLength="160.0879" x="597.1416" y="692.0513">Verify Recipient Account</text></g><g class="message" data-entity-1="part5" data-entity-2="part6" id="msg15"><polygon fill="#1565C0" points="1004.0112,722.25,1014.0112,726.25,1004.0112,730.25,1008.0112,726.25" style="stroke:#1565C0;stroke-width:1;"/><line style="stroke:#1565C0;stroke-width:1;" x1="822.8525" x2="1010.0112" y1="726.25" y2="726.25"/><text fill="#000000" font-family="sans-serif" font-size="13" lengthAdjust="spacing" textLength="161.478" x="829.8525" y="721.1841">Query Recipient Account</text></g><g class="message" data-entity-1="part6" data-entity-2="part5" id="msg16"><polygon fill="#1565C0" points="833.8525,751.3828,823.8525,755.3828,833.8525,759.3828,829.8525,755.3828" style="stroke:#1565C0;stroke-width:1;"/><line style="stroke:#1565C0;stroke-width:1;stroke-dasharray:2,2;" x1="827.8525" x2="1015.0112" y1="755.3828" y2="755.3828"/><text fill="#000000" font-family="sans-serif" font-size="13" lengthAdjust="spacing" textLength="155.854" x="839.8525" y="750.3169">Account Found &amp; Active</text></g><g class="message" data-entity-1="part5" data-entity-2="part4" id="msg17"><polygon fill="#1565C0" points="601.1416,780.5156,591.1416,784.5156,601.1416,788.5156,597.1416,784.5156" style="stroke:#1565C0;stroke-width:1;"/><line style="stroke:#1565C0;stroke-width:1;stroke-dasharray:2,2;" x1="595.1416" x2="821.8525" y1="784.5156" y2="784.5156"/><text fill="#000000" font-family="sans-serif" font-size="13" lengthAdjust="spacing" textLength="115.4067" x="607.1416" y="779.4497">Recipient Verified</text></g><rect fill="#EEEEEE" height="3" style="stroke:#EEEEEE;stroke-width:1;" width="1232.9321" x="0" y="813.082"/><line style="stroke:#000000;stroke-width:1;" x1="0" x2="1232.9321" y1="813.082" y2="813.082"/><line style="stroke:#000000;stroke-width:1;" x1="0" x2="1232.9321" y1="816.082" y2="816.082"/><rect fill="#EEEEEE" height="23.1328" style="stroke:#000000;stroke-width:2;" width="139.0615" x="546.9353" y="802.5156"/><text fill="#000000" font-family="sans-serif" font-size="13" font-weight="bold" lengthAdjust="spacing" textLength="120.5356" x="552.9353" y="818.5825">Execution Phase</text><g class="message" data-entity-1="part4" data-entity-2="part5" id="msg18"><polygon fill="#1565C0" points="810.8525,852.7813,820.8525,856.7813,810.8525,860.7813,814.8525,856.7813" style="stroke:#1565C0;stroke-width:1;"/><line style="stroke:#1565C0;stroke-width:1;" x1="590.1416" x2="816.8525" y1="856.7813" y2="856.7813"/><text fill="#000000" font-family="sans-serif" font-size="13" lengthAdjust="spacing" textLength="189.395" x="597.1416" y="851.7153">Debit Sender Account ($500)</text></g><g class="message" data-entity-1="part5" data-entity-2="part6" id="msg19"><polygon fill="#1565C0" points="1004.0112,881.9141,1014.0112,885.9141,1004.0112,889.9141,1008.0112,885.9141" style="stroke:#1565C0;stroke-width:1;"/><line style="stroke:#1565C0;stroke-width:1;" x1="822.8525" x2="1010.0112" y1="885.9141" y2="885.9141"/><text fill="#000000" font-family="sans-serif" font-size="13" lengthAdjust="spacing" textLength="156.4634" x="829.8525" y="880.8481">UPDATE sender balance</text></g><g class="message" data-entity-1="part6" data-entity-2="part5" id="msg20"><polygon fill="#1565C0" points="833.8525,911.0469,823.8525,915.0469,833.8525,919.0469,829.8525,915.0469" style="stroke:#1565C0;stroke-width:1;"/><line style="stroke:#1565C0;stroke-width:1;stroke-dasharray:2,2;" x1="827.8525" x2="1015.0112" y1="915.0469" y2="915.0469"/><text fill="#000000" font-family="sans-serif" font-size="13" lengthAdjust="spacing" textLength="111.3125" x="839.8525" y="909.981">Balance Updated</text></g><g class="message" data-entity-1="part4" data-entity-2="part5" id="msg21"><polygon fill="#1565C0" points="810.8525,940.1797,820.8525,944.1797,810.8525,948.1797,814.8525,944.1797" style="stroke:#1565C0;stroke-width:1;"/><line style="stroke:#1565C0;stroke-width:1;" x1="590.1416" x2="816.8525" y1="944.1797" y2="944.1797"/><text fill="#000000" font-family="sans-serif" font-size="13" lengthAdjust="spacing" textLength="208.7109" x="597.1416" y="939.1138">Credit Recipient Account ($500)</text></g><g class="message" data-entity-1="part5" data-entity-2="part6" id="msg22"><polygon fill="#1565C0" points="1004.0112,969.3125,1014.0112,973.3125,1004.0112,977.3125,1008.0112,973.3125" style="stroke:#1565C0;stroke-width:1;"/><line style="stroke:#1565C0;stroke-width:1;" x1="822.8525" x2="1010.0112" y1="973.3125" y2="973.3125"/><text fill="#000000" font-family="sans-serif" font-size="13" lengthAdjust="spacing" textLength="169.1587" x="829.8525" y="968.2466">UPDATE recipient balance</text></g><g class="message" data-entity-1="part6" data-entity-2="part5" id="msg23"><polygon fill="#1565C0" points="833.8525,998.4453,823.8525,1002.4453,833.8525,1006.4453,829.8525,1002.4453" style="stroke:#1565C0;stroke-width:1;"/><line style="stroke:#1565C0;stroke-width:1;stroke-dasharray:2,2;" x1="827.8525" x2="1015.0112" y1="1002.4453" y2="1002.4453"/><text fill="#000000" font-family="sans-serif" font-size="13" lengthAdjust="spacing" textLength="111.3125" x="839.8525" y="997.3794">Balance Updated</text></g><g class="message" data-entity-1="part4" data-entity-2="part6" id="msg24"><polygon fill="#1565C0" points="1004.0112,1027.5781,1014.0112,1031.5781,1004.0112,1035.5781,1008.0112,1031.5781" style="stroke:#1565C0;stroke-width:1;"/><line style="stroke:#1565C0;stroke-width:1;" x1="590.1416" x2="1010.0112" y1="1031.5781" y2="1031.5781"/><text fill="#000000" font-family="sans-serif" font-size="13" lengthAdjust="spacing" textLength="153.7212" x="597.1416" y="1026.5122">Record Transaction Log</text></g><g class="message" data-entity-1="part6" data-entity-2="part4" id="msg25"><polygon fill="#1565C0" points="601.1416,1056.7109,591.1416,1060.7109,601.1416,1064.7109,597.1416,1060.7109" style="stroke:#1565C0;stroke-width:1;"/><line style="stroke:#1565C0;stroke-width:1;stroke-dasharray:2,2;" x1="595.1416" x2="1015.0112" y1="1060.7109" y2="1060.7109"/><text fill="#000000" font-family="sans-serif" font-size="13" lengthAdjust="spacing" textLength="142.3906" x="607.1416" y="1055.645">Transaction Recorded</text></g><rect fill="#EEEEEE" height="3" style="stroke:#EEEEEE;stroke-width:1;" width="1232.9321" x="0" y="1089.2773"/><line style="stroke:#000000;stroke-width:1;" x1="0" x2="1232.9321" y1="1089.2773" y2="1089.2773"/><line style="stroke:#000000;stroke-width:1;" x1="0" x2="1232.9321" y1="1092.2773" y2="1092.2773"/><rect fill="#EEEEEE" height="23.1328" style="stroke:#000000;stroke-width:2;" width="162.5859" x="535.1731" y="1078.7109"/><text fill="#000000" font-family="sans-serif" font-size="13" font-weight="bold" lengthAdjust="spacing" textLength="144.0601" x="541.1731" y="1094.7778">Confirmation Phase</text><g class="message" data-entity-1="part4" data-entity-2="part2" id="msg26"><polygon fill="#1565C0" points="298.415,1128.9766,288.415,1132.9766,298.415,1136.9766,294.415,1132.9766" style="stroke:#1565C0;stroke-width:1;"/><line style="stroke:#1565C0;stroke-width:1;stroke-dasharray:2,2;" x1="292.415" x2="589.1416" y1="1132.9766" y2="1132.9766"/><text fill="#000000" font-family="sans-serif" font-size="13" lengthAdjust="spacing" textLength="127.0737" x="304.415" y="1127.9106">Transfer Successful</text></g><g class="message" data-entity-1="part2" data-entity-2="part1" id="msg27"><polygon fill="#1565C0" points="68.002,1173.2422,58.002,1177.2422,68.002,1181.2422,64.002,1177.2422" style="stroke:#1565C0;stroke-width:1;"/><line style="stroke:#1565C0;stroke-width:1;stroke-dasharray:2,2;" x1="62.002" x2="286.415" y1="1177.2422" y2="1177.2422"/><text fill="#000000" font-family="sans-serif" font-size="13" lengthAdjust="spacing" textLength="180.0068" x="74.002" y="1157.0435">Show Success Confirmation</text><text fill="#000000" font-family="sans-serif" font-size="13" lengthAdjust="spacing" textLength="143.8188" x="74.002" y="1172.1763">&amp; Transaction Receipt</text></g><g class="message" data-entity-1="part4" data-entity-2="part7" id="msg28"><polygon fill="#1565C0" points="1125.6719,1202.375,1135.6719,1206.375,1125.6719,1210.375,1129.6719,1206.375" style="stroke:#1565C0;stroke-width:1;"/><line style="stroke:#1565C0;stroke-width:1;" x1="590.1416" x2="1131.6719" y1="1206.375" y2="1206.375"/><text fill="#000000" font-family="sans-serif" font-size="13" lengthAdjust="spacing" textLength="169.7808" x="597.1416" y="1201.3091">Send Transfer Notification</text></g><g class="message" data-entity-1="part7" data-entity-2="part1" id="msg29"><polygon fill="#1565C0" points="68.002,1246.6406,58.002,1250.6406,68.002,1254.6406,64.002,1250.6406" style="stroke:#1565C0;stroke-width:1;"/><line style="stroke:#1565C0;stroke-width:1;" x1="62.002" x2="1136.6719" y1="1250.6406" y2="1250.6406"/><text fill="#000000" font-family="sans-serif" font-size="13" lengthAdjust="spacing" textLength="156.6348" x="74.002" y="1230.4419">Email/SMS Confirmation</text><text fill="#000000" font-family="sans-serif" font-size="13" lengthAdjust="spacing" textLength="156.9585" x="74.002" y="1245.5747">"$500 sent to John Doe"</text></g><line style="stroke:#000000;stroke-width:1;stroke-dasharray:2,2;" x1="10" x2="1222.9321" y1="1259.6406" y2="1259.6406"/><text fill="#000000" font-family="sans-serif" font-size="11" font-weight="bold" lengthAdjust="spacing" textLength="121.9668" x="15" y="1269.8511">[Insufficient Funds]</text><g class="message" data-entity-1="part4" data-entity-2="part2" id="msg30"><polygon fill="#1565C0" points="298.415,1305.7109,288.415,1309.7109,298.415,1313.7109,294.415,1309.7109" style="stroke:#1565C0;stroke-width:1;"/><line style="stroke:#1565C0;stroke-width:1;stroke-dasharray:2,2;" x1="292.415" x2="589.1416" y1="1309.7109" y2="1309.7109"/><text fill="#000000" font-family="sans-serif" font-size="13" lengthAdjust="spacing" textLength="101.6133" x="304.415" y="1289.5122">Transfer Failed:</text><text fill="#000000" font-family="sans-serif" font-size="13" lengthAdjust="spacing" textLength="139.8833" x="304.415" y="1304.645">"Insufficient Balance"</text></g><g class="message" data-entity-1="part2" data-entity-2="part1" id="msg31"><polygon fill="#1565C0" points="68.002,1334.8438,58.002,1338.8438,68.002,1342.8438,64.002,1338.8438" style="stroke:#1565C0;stroke-width:1;"/><line style="stroke:#1565C0;stroke-width:1;stroke-dasharray:2,2;" x1="62.002" x2="286.415" y1="1338.8438" y2="1338.8438"/><text fill="#000000" font-family="sans-serif" font-size="13" lengthAdjust="spacing" textLength="132.52" x="74.002" y="1333.7778">Show Error Message</text></g><?plantuml-src fLLTJzim57tthx0wX402KM0TKgLEQfjMOeAjey1UU76JczOYiJFRWQ5f_ttNZfF6RTTDMf-QtEFZSy_zYE4c0pfYufcB9Ps_QGCvFQNJKYJqNZ6XKr1qfcGCMXEY4LKmnNAguNi98WRwar3y3PMIhsEPIKNVdVS-zCRTwdLif1f9bO3omOl9LNHvuO8tF8KRBY28TwFtLyDp5vynPNZC2oRCYCNFIoLHb8TDBgSNqsWBrcRoCduHmgmAsXcNsiWSL8SoJMF_G8hrSThv1ekpMxdWQCcmA1oG5KM86PPcHUUWNdWC5G9VX936k3RC-9SRR76CQPcGi7f74cROWccWdSZ_S-5a4L9ybeQdF6Q6In7m21iWP32WLZC8KuDcAyiw611Isq1FFzfCQPz-AK2qAi-MG6p0nctYVNfdAw_D1YTnKKGrZ7tRDdbXQ8hcZnKa5imo7TvPSKw4mUS73Kgm7EWXtglrArQpeKqM27ja6KTJ8A33oEcQgHMfu9wXoM_3Ydlv3C9vrEHyBJYU_wjHbURcL0I6yKm_YIC5M1cETvnGbjj2dj04TAnuOJcFQplhVa0gVoEisRp9JfZFEjJJdBPwV0zXzYk8dx4718u1hLjhn3A6aqfgMEtcrnBKsnQgjhFXl0DJAh7D4gRWmtrwq3lfThiuT1asTPbYOreht4BHRbvtAty4nTCtlCnxL-joHtOhtutTqbydEBNh0riBTn9_WP0tp6LDx5HnI8Y3OoqcFo0kDqhnvwGYM72pMOwZWrwtUxmphuTPDBoVu6vr1nRUyPrPUR_fGs478jcdmeu4ojYown-KDAtyds8S9mh0YQvw75UoDV56BjkChHgqKTN1LXN6KgHSvMnl8Pf1NM_ZChQViRJCgfpj78ORQxwIhpKikEL976vA0fpdxKpTphLCqFw0jbUqErB1miidEIwGi_djVEFcZYsJRGf3ZQIVv4hGI4A74CWmyMkXzq_PjWzJl0UIFZ87XtqLEtlDcU27Nj5RzCT-6J39tm00?></g></svg>